<svg width="14" height="15" viewBox="0 0 14 15" fill="none" xmlns="http://www.w3.org/2000/svg">
<path d="M3.11111 6.75H4.66667V8.25H3.11111V6.75ZM3.11111 9.75H4.66667V11.25H3.11111V9.75ZM6.22222 6.75H7.77778V8.25H6.22222V6.75ZM6.22222 9.75H7.77778V11.25H6.22222V9.75ZM9.33333 6.75H10.8889V8.25H9.33333V6.75ZM9.33333 9.75H10.8889V11.25H9.33333V9.75Z" fill="#A9A9A9"/>
<path d="M1.55556 15H12.4444C13.3023 15 14 14.3273 14 13.5V3C14 2.17275 13.3023 1.5 12.4444 1.5H10.8889V0H9.33333V1.5H4.66667V0H3.11111V1.5H1.55556C0.697667 1.5 0 2.17275 0 3V13.5C0 14.3273 0.697667 15 1.55556 15ZM12.4444 4.5L12.4452 13.5H1.55556V4.5H12.4444Z" fill="#A9A9A9"/>
</svg>
