<svg width="18" height="18" viewBox="0 0 18 18" fill="none" xmlns="http://www.w3.org/2000/svg">
<path d="M8.85476 4.31257C6.33989 4.31257 4.31028 6.34223 4.31028 8.85714C4.31028 11.3721 6.33989 13.4017 8.85476 13.4017C11.3696 13.4017 13.3992 11.3721 13.3992 8.85714C13.3992 6.34223 11.3696 4.31257 8.85476 4.31257ZM8.85476 11.8108C7.22841 11.8108 5.90118 10.4835 5.90118 8.85714C5.90118 7.23076 7.22841 5.9035 8.85476 5.9035C10.4811 5.9035 11.8083 7.23076 11.8083 8.85714C11.8083 10.4835 10.4811 11.8108 8.85476 11.8108ZM13.5854 3.0673C12.9982 3.0673 12.524 3.54148 12.524 4.12866C12.524 4.71584 12.9982 5.19002 13.5854 5.19002C14.1725 5.19002 14.6467 4.71806 14.6467 4.12866C14.6469 3.98923 14.6196 3.85114 14.5663 3.72229C14.513 3.59344 14.4348 3.47637 14.3362 3.37778C14.2377 3.27919 14.1206 3.20101 13.9917 3.14774C13.8629 3.09446 13.7248 3.06713 13.5854 3.0673ZM17.7133 8.85714C17.7133 7.63403 17.7244 6.422 17.6557 5.2011C17.587 3.783 17.2635 2.52444 16.2265 1.48745C15.1874 0.448247 13.931 0.126959 12.513 0.0582694C11.2899 -0.0104199 10.0779 0.000659072 8.85698 0.000659072C7.63389 0.000659072 6.42188 -0.0104199 5.201 0.0582694C3.78293 0.126959 2.52439 0.450463 1.48742 1.48745C0.448239 2.52665 0.126956 3.783 0.0582683 5.2011C-0.0104197 6.42421 0.000659059 7.63625 0.000659059 8.85714C0.000659059 10.078 -0.0104197 11.2923 0.0582683 12.5132C0.126956 13.9313 0.450455 15.1898 1.48742 16.2268C2.5266 17.266 3.78293 17.5873 5.201 17.656C6.42409 17.7247 7.6361 17.7136 8.85698 17.7136C10.0801 17.7136 11.2921 17.7247 12.513 17.656C13.931 17.5873 15.1896 17.2638 16.2265 16.2268C17.2657 15.1876 17.587 13.9313 17.6557 12.5132C17.7266 11.2923 17.7133 10.0803 17.7133 8.85714ZM15.7634 14.082C15.6017 14.4852 15.4067 14.7866 15.0943 15.0968C14.7819 15.4092 14.4827 15.6042 14.0795 15.766C12.914 16.2291 10.1465 16.1249 8.85476 16.1249C7.56298 16.1249 4.79331 16.2291 3.62783 15.7682C3.22456 15.6064 2.92322 15.4114 2.61302 15.099C2.3006 14.7866 2.10561 14.4874 1.94386 14.0842C1.48299 12.9165 1.58713 10.1489 1.58713 8.85714C1.58713 7.56534 1.48299 4.79561 1.94386 3.63011C2.10561 3.22684 2.3006 2.92549 2.61302 2.61528C2.92544 2.30507 3.22456 2.10787 3.62783 1.94612C4.79331 1.48523 7.56298 1.58938 8.85476 1.58938C10.1465 1.58938 12.9162 1.48523 14.0817 1.94612C14.485 2.10787 14.7863 2.30286 15.0965 2.61528C15.4089 2.92771 15.6039 3.22684 15.7657 3.63011C16.2265 4.79561 16.1224 7.56534 16.1224 8.85714C16.1224 10.1489 16.2265 12.9165 15.7634 14.082Z" fill="#A9A9A9"/>
</svg>
