<svg width="19" height="18" viewBox="0 0 19 18" fill="none" xmlns="http://www.w3.org/2000/svg">
<path d="M18.4286 8.91201C18.4286 3.98868 14.4612 0 9.5715 0C4.67848 0 0.714355 3.98868 0.714355 8.91201C0.714355 13.3591 3.95219 17.0464 8.18757 17.7143V11.4887H5.93841V8.91256H8.18757V6.94802C8.18757 4.71501 9.50784 3.48181 11.5317 3.48181C12.501 3.48181 13.5157 3.65559 13.5157 3.65559V5.84851H12.3969C11.2986 5.84851 10.9554 6.5364 10.9554 7.24101V8.91201H13.4116L13.0169 11.4881H10.9554V17.7137C15.1875 17.0459 18.4286 13.3585 18.4286 8.91145V8.91201Z" fill="#A9A9A9"/>
</svg>
