<svg width="12" height="14" viewBox="0 0 12 14" fill="none" xmlns="http://www.w3.org/2000/svg">
<path d="M8.2 2.2H9.4C9.71826 2.2 10.0235 2.32643 10.2485 2.55147C10.4736 2.77651 10.6 3.08174 10.6 3.4V11.8C10.6 12.1183 10.4736 12.4235 10.2485 12.6485C10.0235 12.8736 9.71826 13 9.4 13H2.2C1.88174 13 1.57652 12.8736 1.35147 12.6485C1.12643 12.4235 1 12.1183 1 11.8V3.4C1 3.08174 1.12643 2.77651 1.35147 2.55147C1.57652 2.32643 1.88174 2.2 2.2 2.2H3.4" stroke="white" stroke-linecap="round" stroke-linejoin="round"/>
<path d="M7.60002 1H4.00002C3.66865 1 3.40002 1.26863 3.40002 1.6V2.8C3.40002 3.13137 3.66865 3.4 4.00002 3.4H7.60002C7.9314 3.4 8.20002 3.13137 8.20002 2.8V1.6C8.20002 1.26863 7.9314 1 7.60002 1Z" stroke="white" stroke-linecap="round" stroke-linejoin="round"/>
</svg>
