<svg width="17" height="19" viewBox="0 0 17 19" fill="none" xmlns="http://www.w3.org/2000/svg">
<path d="M15.2217 6.56305H14.781V4.4369C14.7806 4.42339 14.7793 4.40993 14.7771 4.3966C14.7778 4.31109 14.7476 4.22821 14.6919 4.16325L11.154 0.12285L11.1514 0.12025C11.1065 0.0714943 11.0492 0.0357857 10.9856 0.0169L10.9661 0.0103999C10.9391 0.00366652 10.9114 0.000175376 10.8836 0H2.18855C1.7914 0 1.469 0.32305 1.469 0.71955V6.56305H1.0283C0.4602 6.56305 0 7.02325 0 7.59135V12.9396C0 13.507 0.46085 13.9679 1.0283 13.9679H1.469V17.6293C1.469 18.0258 1.7914 18.3489 2.18855 18.3489H14.0614C14.4579 18.3489 14.781 18.0258 14.781 17.6293V13.9679H15.2217C15.7898 13.9679 16.25 13.507 16.25 12.9396V7.59135C16.25 7.02325 15.7891 6.56305 15.2217 6.56305ZM2.18855 0.71955H10.5235V4.40115C10.5235 4.60005 10.6847 4.7606 10.8836 4.7606H14.0621V6.56305H2.18855V0.71955ZM11.022 10.2941C11.022 11.3224 10.6476 12.0322 10.1283 12.4703C9.5628 12.9402 8.7022 13.1638 7.64985 13.1638C7.02 13.1638 6.5741 13.1235 6.27055 13.0845V7.80715C6.7171 7.73565 7.29885 7.696 7.9131 7.696C8.93295 7.696 9.59465 7.8793 10.1127 8.26995C10.6711 8.684 11.022 9.3457 11.022 10.2941ZM1.63865 13.1086V7.80715C2.01305 7.74345 2.53955 7.696 3.28055 7.696C4.03 7.696 4.5643 7.83965 4.92245 8.1263C5.265 8.39735 5.49575 8.8439 5.49575 9.36975C5.49575 9.89625 5.3209 10.3422 5.00175 10.6451C4.58705 11.0357 3.97345 11.2112 3.25585 11.2112C3.0966 11.2112 2.95295 11.2034 2.8418 11.1872V13.1086H1.63865ZM14.0614 17.4343H2.18855V13.9679H14.0614V17.4343ZM15.104 8.7321H13.039V9.95995H14.9682V10.9486H13.039V13.1086H11.8202V7.73565H15.104V8.7321Z" fill="black"/>
</svg>
