<svg width="12" height="12" viewBox="0 0 12 12" fill="none" xmlns="http://www.w3.org/2000/svg">
<path fill-rule="evenodd" clip-rule="evenodd" d="M6 12C9.31371 12 12 9.31371 12 6C12 2.68629 9.31371 0 6 0C2.68629 0 0 2.68629 0 6C0 9.31371 2.68629 12 6 12ZM5.4 6.71C5.24667 6.93667 5.17 7.22333 5.17 7.57H6.68C6.68 7.35667 6.73667 7.17667 6.85 7.03C6.96333 6.87667 7.14333 6.69 7.39 6.47C7.59667 6.28333 7.76333 6.12 7.89 5.98C8.02333 5.83333 8.13333 5.65667 8.22 5.45C8.31333 5.24333 8.36 5.00333 8.36 4.73C8.36 4.15 8.12667 3.69667 7.66 3.37C7.2 3.04333 6.58667 2.88 5.82 2.88C5.16667 2.88 4.6 2.99667 4.12 3.23C3.64667 3.46333 3.27 3.79333 2.99 4.22L4.2 4.93C4.36667 4.69667 4.57 4.51667 4.81 4.39C5.05667 4.25667 5.33667 4.19 5.65 4.19C5.97667 4.19 6.23667 4.26333 6.43 4.41C6.63 4.55 6.73 4.74333 6.73 4.99C6.73 5.16333 6.67667 5.32 6.57 5.46C6.47 5.59333 6.31 5.76 6.09 5.96C5.79 6.23333 5.56 6.48333 5.4 6.71ZM5.24 9.82C5.42667 9.99333 5.65667 10.08 5.93 10.08C6.20333 10.08 6.43 9.99333 6.61 9.82C6.79667 9.64 6.89 9.42333 6.89 9.17C6.89 8.91667 6.8 8.70667 6.62 8.54C6.44 8.36667 6.21 8.28 5.93 8.28C5.65 8.28 5.42 8.36667 5.24 8.54C5.06 8.70667 4.97 8.91667 4.97 9.17C4.97 9.42333 5.06 9.64 5.24 9.82Z" fill="#003CD3"/>
</svg>
