<svg width="65" height="8" viewBox="0 0 65 8" fill="none" xmlns="http://www.w3.org/2000/svg">
<path d="M64.3536 4.35355C64.5488 4.15829 64.5488 3.8417 64.3536 3.64644L61.1716 0.464461C60.9763 0.269199 60.6597 0.269199 60.4645 0.464461C60.2692 0.659723 60.2692 0.976305 60.4645 1.17157L63.2929 3.99999L60.4645 6.82842C60.2692 7.02368 60.2692 7.34027 60.4645 7.53553C60.6597 7.73079 60.9763 7.73079 61.1716 7.53553L64.3536 4.35355ZM4.37114e-08 4.5L64 4.49999L64 3.49999L-4.37114e-08 3.5L4.37114e-08 4.5Z" fill="url(#paint0_linear)"/>
<defs>
<linearGradient id="paint0_linear" x1="64" y1="3.5" x2="-1.24734e-07" y2="3.50001" gradientUnits="userSpaceOnUse">
<stop/>
<stop offset="0.53125" stop-color="#003CD3"/>
</linearGradient>
</defs>
</svg>
