<svg width="30" height="30" viewBox="0 0 30 30" fill="none" xmlns="http://www.w3.org/2000/svg">
<rect width="30" height="30" rx="5" fill="#FFA20A"/>
<path d="M15 6V24" stroke="white" stroke-linecap="round" stroke-linejoin="round"/>
<path d="M19.1667 9.27274H12.9167C12.1431 9.27274 11.4013 9.57444 10.8543 10.1115C10.3073 10.6485 10 11.3769 10 12.1364C10 12.8959 10.3073 13.6242 10.8543 14.1613C11.4013 14.6983 12.1431 15 12.9167 15H17.0833C17.8569 15 18.5987 15.3017 19.1457 15.8387C19.6927 16.3758 20 17.1042 20 17.8636C20 18.6231 19.6927 19.3515 19.1457 19.8885C18.5987 20.4256 17.8569 20.7273 17.0833 20.7273H10" stroke="white" stroke-linecap="round" stroke-linejoin="round"/>
</svg>
