<svg width="16" height="16" viewBox="0 0 16 16" fill="none" xmlns="http://www.w3.org/2000/svg">
<path d="M8 15C11.866 15 15 11.866 15 8C15 4.13401 11.866 1 8 1C4.13401 1 1 4.13401 1 8C1 11.866 4.13401 15 8 15Z" stroke="white" stroke-linecap="round" stroke-linejoin="round"/>
<path d="M5.96301 5.90001C6.12759 5.43217 6.45242 5.03768 6.87998 4.7864C7.30754 4.53512 7.81024 4.44326 8.29904 4.5271C8.78783 4.61095 9.23118 4.86507 9.55057 5.24447C9.86995 5.62388 10.0448 6.10407 10.044 6.60001C10.044 8.00001 7.94401 8.70001 7.94401 8.70001" stroke="white" stroke-linecap="round" stroke-linejoin="round"/>
<path d="M8 11.5H8.00513" stroke="white" stroke-linecap="round" stroke-linejoin="round"/>
</svg>
