<svg width="14" height="4" viewBox="0 0 14 4" fill="none" xmlns="http://www.w3.org/2000/svg">
<path d="M2.00004 0.333313C1.08337 0.333313 0.333374 1.08331 0.333374 1.99998C0.333374 2.91665 1.08337 3.66665 2.00004 3.66665C2.91671 3.66665 3.66671 2.91665 3.66671 1.99998C3.66671 1.08331 2.91671 0.333313 2.00004 0.333313ZM12 0.333313C11.0834 0.333313 10.3334 1.08331 10.3334 1.99998C10.3334 2.91665 11.0834 3.66665 12 3.66665C12.9167 3.66665 13.6667 2.91665 13.6667 1.99998C13.6667 1.08331 12.9167 0.333313 12 0.333313ZM7.00004 0.333313C6.08337 0.333313 5.33337 1.08331 5.33337 1.99998C5.33337 2.91665 6.08337 3.66665 7.00004 3.66665C7.91671 3.66665 8.66671 2.91665 8.66671 1.99998C8.66671 1.08331 7.91671 0.333313 7.00004 0.333313Z" fill="white"/>
</svg>
