<svg xmlns="http://www.w3.org/2000/svg" shape-rendering="geometricPrecision" fill-rule="evenodd" clip-rule="evenodd" viewBox="0 0 1000 560"><g><path fill="#052332" d="M71 175c22 0 41 3 56 16 13 12 21 29 20 47 0 31-19 62-70 62h-22v96h-24v-220h40zm-16 101h20c29 0 47-15 47-40 0-35-33-38-49-38h-18v78zm230 57h-94l-26 62h-27l101-231 99 231h-27l-26-62zm-10-23l-37-88-38 88h75zm119-10l-72-125h28l56 98 57-98h28l-73 125v95h-24v-95z"/><path fill="#2C97DE" d="M638 198h-90v65h87v23h-87v86h90v23h-114v-220h114v23zm159 0h-90v65h87v23h-87v86h90v23h-114v-220h114v23zm80-23c15 0 37 1 53 12s25 29 24 49c2 32-23 59-55 61h-1l70 98h-30l-66-96h-6v96h-24v-220h35zm-11 102h16c30 0 49-15 49-40 1-13-6-26-17-32-10-5-21-7-32-6h-15v79z"/></g></svg>