<svg xmlns="http://www.w3.org/2000/svg" viewBox="0 0 100 56" enable-background="new 0 0 100 56"><style type="text/css">.st0{fill:#F00F0F;}</style><path class="st0" d="M65.1 20.6h2.6c.1 0 .2.1.3.2l-.3.3h-.2c-1 .2-1.2.4-1.2 1.5l.2 8.7c0 .7.3 1 1 1h.2c.1.1.2.2.3.2-.1.1-.2.2-.3.2h-3.9c-.1 0-.2-.1-.3-.2.1-.1.2-.2.3-.2 1.1-.1 1.1-.2 1.1-1.3v-7.8c-.1 0-.1 0-.2-.1-1.6 3.2-3.2 6.5-4.9 9.8-1.6-3.4-3.1-6.6-4.6-9.9h-.1c-.1 1.1-.2 2.1-.2 3.2-.1 1.4-.1 2.9-.1 4.3v.6c.1.8.3 1 1.1 1h.2c.1.1.2.2.3.2-.1.1-.2.2-.3.2h-3.5c-.1 0-.2-.1-.3-.2.1-.1.1-.2.2-.2 1.2-.3 1.3-.4 1.4-1.6l.5-8.1c.1-1.2-.1-1.2-1.2-1.5l-.4-.3c.1-.1.3-.2.4-.2h2.5c.9 3.5 3 6.4 4.5 9.7 1.8-3 3.6-6.1 4.9-9.5zM78.4 25l.1 1.2c.5-.2.8-.5 1.2-.6.5-.2 1.1-.4 1.7-.4 1.3 0 2 .9 2 2.2v4c0 .6.2.8.8.9.1 0 .3.2.4.3-.1.1-.3.2-.4.2h-2.8c-.1 0-.3-.1-.4-.2.1-.1.2-.2.4-.3.5-.1.7-.4.7-.8v-3.7c0-1.1-.7-1.7-1.8-1.6-1.1 0-1.7.6-1.7 1.7v3.5c0 .7.1.8.8 1 .1 0 .2.2.3.3-.1.1-.2.2-.3.2h-2.9c-.1 0-.2-.1-.3-.2l.2-.3c.8-.2.8-.3.8-1.1v-3.8c0-.5-.1-.8-.5-1.1-.3-.2-.3-.3.1-.5.4-.3 1-.6 1.6-.9zM4.4 26.9h-1.5v-4.5c0-.9-.2-1-1.1-1.2-.2 0-.3-.2-.5-.3.2-.1.3-.2.5-.2 1.7 0 3.3-.1 5 0 2.4.2 3.7 2.2 3.1 4.4-.4 1.3-1.4 1.8-2.5 2.2-1.7.6-3.4.6-5.1.3-.8-.1-1.6-.2-2.3-.3h3.2c1 0 2-.1 3-.3 1.6-.3 2.4-1.6 2.2-3.2-.2-1.8-1.1-2.6-2.9-2.7h-.1c-1 0-1 0-1 1v4.8zM22.5 26.1c.1-.1.2-.3.4-.3.6-.2.7-.6.8-1.2.1-1.2.3-2.4 1-3.4.9-1.2 2.2-1.8 3.6-1.4.3.1.7.3.9.6.3.3.2.6-.1.9-.3.3-.6.2-.9 0-.2-.1-.3-.3-.4-.4-.9-.7-2-.5-2.3.7-.2.6-.3 1.3-.4 1.9v1.7c0 .4.1.5.5.5h1.9c.2.6.1.7-.5.7h-1.5c-.1 0-.4.2-.4.4v4.9c0 .5.2.7.7.8h.3c.1.1.2.2.4.3-.1.1-.2.2-.4.2h-2.5c-.3 0-.5.1-.8 0-.1 0-.2-.1-.3-.2.1-.1.1-.2.2-.2.9-.3 1-.4 1-1.3v-4c0-.7 0-.7-.7-.7h-.3c-.2-.4-.2-.5-.2-.5zM75.7 29c0 2.3-1.5 3.9-3.9 4-2.1 0-3.8-1.6-3.8-3.8 0-2.3 1.6-4 3.9-4 2.2 0 3.8 1.6 3.8 3.8zm-6.1.1c0 .9.2 2 1.1 2.8.8.7 2 .7 2.7-.1 1.1-1.4 1-4.2-.3-5.5-.8-.8-2.1-.7-2.8.2-.5.7-.7 1.6-.7 2.6zM95.9 31c.5-1.2 1-2.2 1.4-3.3.2-.4.3-.7.4-1.1s0-.6-.4-.7c-.1 0-.3 0-.4-.1-.1 0-.1-.2-.2-.3 0 0 .1-.1.2-.1h2.7c.1 0 .2.1.2.2-.1.1-.1.3-.2.3-.8.1-1.1.7-1.4 1.3l-4.3 9c-.4.8-.8 1.1-1.4 1-.4-.1-.7-.3-.7-.7s.2-.8.6-.8c.9.1 1.2-.5 1.5-1.1 0 0 0-.1.1-.1.8-1.2.9-2.4.3-3.7-.6-1.2-1-2.5-1.4-3.8-.2-.6-.5-1.1-1.2-1.2-.1 0-.2-.2-.3-.3.1-.1.2-.2.3-.2h2.9c.1 0 .2.1.3.2l-.3.3c-.7.3-.7.3-.5 1l1.2 3.4c.4.3.5.5.6.8zM88.5 28h-2c-.2 0-.5.2-.5.3-.1 1.6.7 3.5 2.9 3.6.6 0 1.1-.2 1.6-.6.1-.1.3-.2.5-.3l-.2.6c-.9 1.1-2.1 1.5-3.4 1.2-1.4-.3-2.1-1.2-2.5-2.5-.5-2.2.6-4.4 2.6-5 1.4-.4 2.7 0 3.3 1.1l.2.4c.3.8.1 1.1-.8 1.1-.5.1-1.1.1-1.7.1zm-2.3-.6h2.8c.2 0 .7-.2.7-.3 0-.3-.1-.7-.3-.9-.5-.5-1.1-.5-1.8-.2-.7.2-1.2.6-1.4 1.4zM13.4 28h-2c-.2 0-.4.2-.4.3-.3 1.7 1 3.5 2.8 3.6.6 0 1.2-.2 1.7-.6.1-.1.3-.2.5-.2 0 .2 0 .4-.1.6-.9 1.1-2 1.5-3.4 1.2-1.3-.2-2.1-1-2.5-2.2-.7-2.1.3-4.4 2.2-5.2 1.1-.4 2.1-.4 3.1.4.3.2.5.5.6.8.4.9.1 1.3-.8 1.3h-1.7zm-2.2-.6h2.7c.2 0 .6-.2.7-.3.2-.4 0-.8-.4-1s-.9-.3-1.3-.2c-.9 0-1.7.8-1.7 1.5zM31.1 28h-1.8c-.7 0-.7 0-.7.7.1 1.7 1 2.9 2.5 3.2.8.1 1.4 0 2-.6l.4-.2c0 .2 0 .3-.1.5-.7 1.1-2.1 1.6-3.5 1.3-1.3-.3-2.3-1.3-2.5-2.7-.2-1.5 0-3 1.2-4.1s3.2-1.2 4.2-.2c.2.2.4.5.5.7.4 1 .2 1.3-.8 1.3-.4.1-.9.1-1.4.1zm-2.3-.6h2.8c.2 0 .7-.2.7-.3 0-.3-.1-.7-.3-.9-.5-.4-1.1-.4-1.7-.2-.8.2-1.3.6-1.5 1.4zM34.2 29.4c0-2.3 1.5-3.9 3.6-4.1.7-.1 1.3 0 2 .1.6.1.8.5.7 1 0 .2-.1.4-.3.4-.1 0-.3-.1-.4-.2-.6-.6-1.3-1-2.2-.8-.6.1-1.1.5-1.5 1-1.3 1.9-.2 4.8 2 5 .9.1 1.6-.1 2.2-.8.1-.1.3-.2.4-.2v.5c-.6 1.2-2.1 1.7-3.6 1.5-1.4-.2-2.4-1.3-2.7-2.6-.1-.2-.2-.6-.2-.8zM16.7 26l2.1-1c0 .5 0 .9.1 1.3.4-.3.7-.5 1-.7.4-.2.8-.3 1.3-.3s.7.5.5 1c-.2.4-.6.6-1 .4-.1 0-.2-.1-.3-.2-.8-.4-1.4-.1-1.4.8-.1 1.4 0 2.9 0 4.3 0 .4.3.6.6.6h.5l.3.2c-.1.1-.2.2-.3.2-.8 0-1.6 0-2.5-.1-.3 0-.5.1-.8 0-.1 0-.2-.1-.3-.2.1-.1.1-.2.2-.2.9-.3.9-.3.9-1.2v-3.6c0-.5 0-1-.6-1.3-.1.2-.2.1-.3 0zM46.2 31.9l-.2.4c-.7.6-2 .8-2.8.4-.6-.3-.8-.8-.8-1.5v-4c0-1 0-1-1.1-1.1l.4-.4c.7-.2 1.2-.7 1.5-1.3l.3-.3c.1.1.2.3.2.4 0 .9 0 .8.9.8h1.2c.2 0 .4 0 .4.3s-.1.4-.4.4h-1.6c-.3 0-.5.1-.5.4 0 1.4 0 2.9.1 4.3.1 1.1 1 1.5 2 1 .1-.1.2-.1.3-.1 0 .3 0 .3.1.3zM2.9 28.2l1.5.1v2.5c0 1.2.2 1.4 1.4 1.5l.4.3c-.1.1-.3.2-.4.2h-4c-.1 0-.3-.1-.4-.2.1-.1.2-.2.3-.2 1-.2 1.2-.4 1.2-1.5.1-.9 0-1.8 0-2.7z"/></svg>