<svg width="45" height="41" viewBox="0 0 45 41" fill="none" xmlns="http://www.w3.org/2000/svg">
<path d="M22.5 9.66667C22.5 7.36812 21.5939 5.16372 19.9811 3.53841C18.3683 1.91309 16.1809 1 13.9 1H1V33.5H16.05C17.7606 33.5 19.4012 34.1848 20.6108 35.4038C21.8205 36.6228 22.5 38.2761 22.5 40M22.5 9.66667V40M22.5 9.66667C22.5 7.36812 23.4061 5.16372 25.0189 3.53841C26.6317 1.91309 28.8191 1 31.1 1H44V33.5H28.95C27.2394 33.5 25.5988 34.1848 24.3892 35.4038C23.1796 36.6228 22.5 38.2761 22.5 40" stroke="#BCBCBC" stroke-width="2" stroke-linecap="round" stroke-linejoin="round"/>
</svg>
