<svg width="14" height="14" viewBox="0 0 14 14" fill="none" xmlns="http://www.w3.org/2000/svg">
<path d="M14 7.04336C14 3.15234 10.8644 0 7 0C3.13294 0 0 3.15234 0 7.04336C0 10.558 2.55894 13.4722 5.90625 14V9.07977H4.12869V7.0438H5.90625V5.49118C5.90625 3.72638 6.94969 2.75175 8.54919 2.75175C9.31525 2.75175 10.1172 2.8891 10.1172 2.8891V4.62221H9.233C8.365 4.62221 8.09375 5.16586 8.09375 5.72273V7.04336H10.0349L9.723 9.07933H8.09375V13.9996C11.4384 13.4717 14 10.5576 14 7.04292V7.04336Z" fill="black"/>
</svg>
