<svg width="28" height="28" viewBox="0 0 28 28" fill="none" xmlns="http://www.w3.org/2000/svg">
<path d="M28 14.0867C28 6.30469 21.7289 0 14 0C6.26588 0 0 6.30469 0 14.0867C0 21.116 5.11788 26.9444 11.8125 28V18.1595H8.25738V14.0876H11.8125V10.9824C11.8125 7.45276 13.8994 5.50351 17.0984 5.50351C18.6305 5.50351 20.2344 5.7782 20.2344 5.7782V9.24441H18.466C16.73 9.24441 16.1875 10.3317 16.1875 11.4455V14.0867H20.0699L19.446 18.1587H16.1875V27.9991C22.8769 26.9435 28 21.1151 28 14.0858V14.0867Z" fill="#005DD2"/>
</svg>
