<svg width="21" height="20" viewBox="0 0 21 20" fill="none" xmlns="http://www.w3.org/2000/svg">
<path d="M20.1633 9.97214C20.1633 4.46316 15.7239 0 10.2525 0C4.77748 0 0.341797 4.46316 0.341797 9.97214C0.341797 14.9482 3.96479 19.0742 8.70399 19.8215V12.8553H6.18728V9.97276H8.70399V7.77453C8.70399 5.27588 10.1813 3.89599 12.4459 3.89599C13.5305 3.89599 14.6659 4.09045 14.6659 4.09045V6.54422H13.4141C12.1851 6.54422 11.8011 7.31394 11.8011 8.10236V9.97214H14.5495L14.1078 12.8547H11.8011V19.8209C16.5366 19.0736 20.1633 14.9476 20.1633 9.97151V9.97214Z" fill="#C4C4C4"/>
</svg>
