<svg width="19" height="18" viewBox="0 0 19 18" fill="none" xmlns="http://www.w3.org/2000/svg">
<path d="M18.4282 8.91201C18.4282 3.98868 14.4607 0 9.57101 0C4.67799 0 0.713867 3.98868 0.713867 8.91201C0.713867 13.3591 3.95171 17.0464 8.18708 17.7143V11.4887H5.93792V8.91256H8.18708V6.94802C8.18708 4.71501 9.50735 3.48181 11.5312 3.48181C12.5005 3.48181 13.5152 3.65559 13.5152 3.65559V5.84851H12.3964C11.2982 5.84851 10.9549 6.5364 10.9549 7.24101V8.91201H13.4111L13.0164 11.4881H10.9549V17.7137C15.187 17.0459 18.4282 13.3585 18.4282 8.91145V8.91201Z" fill="white"/>
</svg>
