<svg width="25" height="20" viewBox="0 0 25 20" fill="none" xmlns="http://www.w3.org/2000/svg">
<path d="M16.4854 19V17C16.4854 15.9391 16.0639 14.9217 15.3138 14.1716C14.5636 13.4214 13.5462 13 12.4854 13H5.48535C4.42449 13 3.40707 13.4214 2.65692 14.1716C1.90678 14.9217 1.48535 15.9391 1.48535 17V19" stroke="#003CD3" stroke-width="2" stroke-linecap="round" stroke-linejoin="round"/>
<path d="M8.98535 9C11.1945 9 12.9854 7.20914 12.9854 5C12.9854 2.79086 11.1945 1 8.98535 1C6.77621 1 4.98535 2.79086 4.98535 5C4.98535 7.20914 6.77621 9 8.98535 9Z" stroke="#003CD3" stroke-width="2" stroke-linecap="round" stroke-linejoin="round"/>
<path d="M20.4854 6V12" stroke="#003CD3" stroke-width="2" stroke-linecap="round" stroke-linejoin="round"/>
<path d="M23.4854 9H17.4854" stroke="#003CD3" stroke-width="2" stroke-linecap="round" stroke-linejoin="round"/>
</svg>
