<svg width="20" height="20" viewBox="0 0 20 20" fill="none" xmlns="http://www.w3.org/2000/svg">
<path d="M9.90808 4.82558C7.09406 4.82558 4.82301 7.09667 4.82301 9.91075C4.82301 12.7248 7.09406 14.9959 9.90808 14.9959C12.7221 14.9959 14.9932 12.7248 14.9932 9.91075C14.9932 7.09667 12.7221 4.82558 9.90808 4.82558ZM9.90808 13.2157C8.08827 13.2157 6.60316 11.7306 6.60316 9.91075C6.60316 8.0909 8.08827 6.60576 9.90808 6.60576C11.7279 6.60576 13.213 8.0909 13.213 9.91075C13.213 11.7306 11.7279 13.2157 9.90808 13.2157ZM15.2014 3.43217C14.5444 3.43217 14.0138 3.96276 14.0138 4.61979C14.0138 5.27682 14.5444 5.8074 15.2014 5.8074C15.8584 5.8074 16.389 5.2793 16.389 4.61979C16.3892 4.46377 16.3586 4.30925 16.299 4.16508C16.2394 4.0209 16.1519 3.8899 16.0416 3.77958C15.9313 3.66926 15.8003 3.58179 15.6561 3.52218C15.512 3.46256 15.3574 3.43198 15.2014 3.43217ZM19.8204 9.91075C19.8204 8.54214 19.8328 7.18593 19.7559 5.8198C19.6791 4.23301 19.3171 2.82473 18.1568 1.66439C16.994 0.501568 15.5882 0.142061 14.0014 0.0652009C12.6329 -0.0116594 11.2767 0.000737472 9.91056 0.000737472C8.54198 0.000737472 7.1858 -0.0116594 5.81969 0.0652009C4.23293 0.142061 2.82468 0.504048 1.66436 1.66439C0.501559 2.82721 0.142058 4.23301 0.0651996 5.8198C-0.0116592 7.18841 0.000737458 8.54462 0.000737458 9.91075C0.000737458 11.2769 -0.0116592 12.6356 0.0651996 14.0017C0.142058 15.5885 0.504039 16.9968 1.66436 18.1571C2.82716 19.3199 4.23293 19.6794 5.81969 19.7563C7.18827 19.8332 8.54446 19.8208 9.91056 19.8208C11.2791 19.8208 12.6353 19.8332 14.0014 19.7563C15.5882 19.6794 16.9964 19.3174 18.1568 18.1571C19.3196 16.9943 19.6791 15.5885 19.7559 14.0017C19.8353 12.6356 19.8204 11.2794 19.8204 9.91075ZM17.6386 15.7571C17.4576 16.2083 17.2394 16.5455 16.8898 16.8926C16.5403 17.2422 16.2055 17.4604 15.7543 17.6414C14.4502 18.1596 11.3535 18.0431 9.90808 18.0431C8.46264 18.0431 5.3635 18.1596 4.05938 17.6439C3.60814 17.4629 3.27096 17.2447 2.92385 16.8951C2.57427 16.5455 2.35609 16.2108 2.1751 15.7596C1.6594 14.4529 1.77593 11.3562 1.77593 9.91075C1.77593 8.46528 1.6594 5.36608 2.1751 4.06193C2.35609 3.61069 2.57427 3.2735 2.92385 2.92638C3.27343 2.57927 3.60814 2.35861 4.05938 2.17762C5.3635 1.66191 8.46264 1.77844 9.90808 1.77844C11.3535 1.77844 14.4527 1.66191 15.7568 2.17762C16.208 2.35861 16.5452 2.57679 16.8923 2.92638C17.2419 3.27597 17.4601 3.61069 17.6411 4.06193C18.1568 5.36608 18.0402 8.46528 18.0402 9.91075C18.0402 11.3562 18.1568 14.4529 17.6386 15.7571Z" fill="#C4C4C4"/>
</svg>
