<svg width="138" height="32" viewBox="0 0 138 32" fill="none" xmlns="http://www.w3.org/2000/svg">
<path d="M27.6258 13.8082H23.2669C23.2669 8.59811 19.0277 4.35892 13.8176 4.35892V0C21.4316 0 27.6258 6.19415 27.6258 13.8082Z" fill="white"/>
<path d="M4.35892 18.1597H0C0 10.5456 6.19415 4.35143 13.8082 4.35143V8.71035C8.59811 8.71035 4.35892 12.9495 4.35892 18.1597Z" fill="white"/>
<path d="M18.1485 27.6127V23.2538C23.3586 23.2538 27.5978 19.0146 27.5978 13.8045H31.9567C31.9567 21.4186 25.7625 27.6127 18.1485 27.6127Z" fill="white"/>
<path d="M18.1484 31.9679C10.5343 31.9679 4.34018 25.7738 4.34018 18.1597H8.6991C8.6991 23.3698 12.9383 27.609 18.1484 27.609V31.9679Z" fill="white"/>
<path d="M45.3197 24.844C44.2383 24.5297 43.3703 24.1218 42.7137 23.6205L43.8642 21.0669C44.4928 21.5271 45.2373 21.8975 46.1035 22.1762C46.9678 22.455 47.834 22.5953 48.6983 22.5953C49.6617 22.5953 50.3726 22.4531 50.8328 22.1669C51.2931 21.8807 51.5232 21.5009 51.5232 21.0257C51.5232 20.6777 51.3866 20.3878 51.1153 20.1577C50.8441 19.9276 50.4942 19.7424 50.0696 19.6039C49.643 19.4636 49.0687 19.3102 48.3428 19.1437C47.226 18.8781 46.313 18.6143 45.6021 18.3486C44.8912 18.083 44.2795 17.6583 43.7706 17.0727C43.2618 16.4872 43.0074 15.7052 43.0074 14.7287C43.0074 13.8775 43.2375 13.1067 43.6977 12.4164C44.1579 11.7261 44.852 11.1779 45.7799 10.7738C46.7078 10.3697 47.8415 10.1677 49.1809 10.1677C50.1163 10.1677 51.0293 10.2799 51.9216 10.5026C52.814 10.7252 53.596 11.047 54.2657 11.466L53.22 14.0402C51.8674 13.2732 50.5129 12.8897 49.1604 12.8897C48.2119 12.8897 47.5103 13.0431 47.0576 13.3499C46.6049 13.6567 46.3766 14.0608 46.3766 14.564C46.3766 15.0654 46.6386 15.4396 47.1624 15.6828C47.6862 15.9278 48.4831 16.1673 49.5588 16.4049C50.6757 16.6705 51.5886 16.9343 52.2995 17.2C53.0104 17.4656 53.6222 17.8847 54.131 18.4553C54.6399 19.0277 54.8943 19.8022 54.8943 20.7788C54.8943 21.615 54.6605 22.3802 54.1928 23.0705C53.7251 23.7608 53.0235 24.3089 52.09 24.713C51.1546 25.1171 50.0191 25.3192 48.6796 25.3192C47.5216 25.3154 46.401 25.1583 45.3197 24.844Z" fill="white"/>
<path d="M79.3585 10.4146L74.5656 25.0647H70.925L67.7017 15.144L64.3735 25.0647H60.7536L55.9401 10.4146H59.4553L62.7628 20.7114L66.2163 10.4146H69.3554L72.7041 20.7956L76.1146 10.4146H79.3585Z" fill="white"/>
<path d="M90.4092 21.9237H83.607L82.3087 25.0628H78.8365L85.3655 10.4128H88.7142L95.2638 25.0628H91.7075L90.4092 21.9237ZM89.3428 19.3495L87.0193 13.7409L84.6958 19.3495H89.3428Z" fill="white"/>
<path d="M106.513 11.0619C107.469 11.4941 108.204 12.1077 108.72 12.9028C109.237 13.6979 109.495 14.6407 109.495 15.7277C109.495 16.8015 109.237 17.7406 108.72 18.5432C108.204 19.3458 107.469 19.9594 106.513 20.384C105.557 20.8106 104.431 21.022 103.132 21.022H100.182V25.061H96.7923V10.4109H103.134C104.431 10.4146 105.557 10.6298 106.513 11.0619ZM105.269 17.6022C105.798 17.1626 106.064 16.5377 106.064 15.7295C106.064 14.9064 105.798 14.2759 105.269 13.8363C104.739 13.3967 103.965 13.1778 102.945 13.1778H100.182V18.2626H102.945C103.963 18.2626 104.738 18.0418 105.269 17.6022Z" fill="white"/>
<path d="M115.292 13.1347V17.0073H122.074V19.7274H115.292V25.0647H111.903V10.4146H122.974V13.1347H115.292Z" fill="white"/>
<path d="M132.307 19.8733V25.0628H128.917V19.8303L123.245 10.4128H126.844L130.758 16.9212L134.672 10.4128H138L132.307 19.8733Z" fill="white"/>
</svg>
