<svg width="307" height="82" viewBox="0 0 307 82" fill="none" xmlns="http://www.w3.org/2000/svg">
<mask id="mask0" mask-type="alpha" maskUnits="userSpaceOnUse" x="0" y="-34" width="307" height="145">
<rect y="-34" width="307" height="145" rx="29" fill="#F7F7F7"/>
</mask>
<g mask="url(#mask0)">
<path d="M121 39.5753H125.373V26.5236C125.371 23.0401 126.06 19.5905 127.398 16.3719C128.737 13.1533 130.699 10.2288 133.174 7.76558C135.648 5.30236 138.586 3.3487 141.819 2.01625C145.052 0.683789 148.518 -0.00134499 152.017 1.98226e-06C155.516 -0.000896015 158.981 0.684569 162.214 2.01723C165.447 3.34989 168.384 5.30362 170.858 7.76678C173.333 10.2299 175.295 13.1543 176.633 16.3726C177.971 19.591 178.66 23.0404 178.658 26.5236V39.4488C178.596 39.483 178.531 39.5445 178.466 39.5753L178.432 39.6094L178.404 39.6402H178.37L178.336 39.6743L178.305 39.7051H178.209L178.147 39.7666H178.078L178.016 39.8008H177.982L177.951 39.8349L177.92 39.8657H177.886L177.855 39.8964L177.824 39.9306L177.79 39.9613L177.759 39.9921L177.663 40.057L177.598 40.0912L177.502 40.1527L177.44 40.1868L177.371 40.2176L177.278 40.2791L177.213 40.3133L177.179 40.344L177.086 40.4089L177.018 40.4431L176.86 40.5353L176.795 40.5695L176.733 40.6003L176.664 40.6344H176.637L176.441 40.7267H176.376C176.314 40.7608 176.249 40.795 176.153 40.8565H176.118L176.087 40.8907L175.991 40.9522L175.93 40.9863L175.83 41.0478L175.768 41.082H175.734L175.638 41.1435L175.576 41.1777L175.507 41.2084C175.446 41.2426 175.35 41.2733 175.284 41.3041L175.223 41.3383L175.154 41.369L175.027 41.4305L174.9 41.4988L174.739 41.5603L174.577 41.6253L174.512 41.656L174.385 41.7209L174.32 41.7551C169.017 44.28 160.533 46.9348 144.432 48.0862C132.893 48.9198 125.888 53.9731 121.354 60.0513L121 39.5753ZM137.619 39.5753H166.35V26.5236C166.351 24.6451 165.98 22.7849 165.258 21.0493C164.537 19.3137 163.478 17.7367 162.144 16.4084C160.81 15.0802 159.226 14.0267 157.482 13.3083C155.739 12.5898 153.87 12.2205 151.983 12.2214C150.096 12.221 148.228 12.5906 146.485 13.3093C144.742 14.0279 143.158 15.0814 141.824 16.4096C140.49 17.7378 139.432 19.3147 138.71 21.0501C137.989 22.7855 137.618 24.6454 137.619 26.5236V39.5753ZM183 44.567V82H129.938C135.786 78.7678 140.124 79.089 147.356 79.3111C157.19 79.6322 168.053 75.5357 173.39 70.0998C178.723 64.6604 172.909 68.8185 166.865 70.3526C160.824 71.8901 149.12 72.0507 141.281 70.0007C165.901 70.3218 175.511 62.4191 180.941 55.2851C186.374 48.1818 178.596 54.038 173.551 56.5014C168.506 58.9614 159.699 60.6937 149.992 59.4124C164.648 59.3783 175.803 52.0871 182.966 44.567H183Z" fill="#003CD3"/>
<path d="M200 39.5753H204.373V26.5236C204.371 23.0401 205.06 19.5905 206.398 16.3719C207.737 13.1533 209.699 10.2288 212.174 7.76558C214.648 5.30236 217.586 3.3487 220.819 2.01625C224.052 0.683789 227.518 -0.00134499 231.017 1.98226e-06C234.516 -0.000896015 237.981 0.684569 241.214 2.01723C244.447 3.34989 247.384 5.30362 249.858 7.76678C252.333 10.2299 254.295 13.1543 255.633 16.3726C256.971 19.591 257.66 23.0404 257.658 26.5236V39.4488C257.596 39.483 257.531 39.5445 257.466 39.5753L257.432 39.6094L257.404 39.6402H257.37L257.336 39.6743L257.305 39.7051H257.209L257.147 39.7666H257.078L257.016 39.8008H256.982L256.951 39.8349L256.92 39.8657H256.886L256.855 39.8964L256.824 39.9306L256.79 39.9613L256.759 39.9921L256.663 40.057L256.598 40.0912L256.502 40.1527L256.44 40.1868L256.371 40.2176L256.278 40.2791L256.213 40.3133L256.179 40.344L256.086 40.4089L256.018 40.4431L255.86 40.5353L255.795 40.5695L255.733 40.6003L255.664 40.6344H255.637L255.441 40.7267H255.376C255.314 40.7608 255.249 40.795 255.153 40.8565H255.118L255.087 40.8907L254.991 40.9522L254.93 40.9863L254.83 41.0478L254.768 41.082H254.734L254.638 41.1435L254.576 41.1777L254.507 41.2084C254.446 41.2426 254.35 41.2733 254.284 41.3041L254.223 41.3383L254.154 41.369L254.027 41.4305L253.9 41.4988L253.739 41.5603L253.577 41.6253L253.512 41.656L253.385 41.7209L253.32 41.7551C248.017 44.28 239.533 46.9348 223.432 48.0862C211.893 48.9198 204.888 53.9731 200.354 60.0513L200 39.5753ZM216.619 39.5753H245.35V26.5236C245.351 24.6451 244.98 22.7849 244.258 21.0493C243.537 19.3137 242.478 17.7367 241.144 16.4084C239.81 15.0802 238.226 14.0267 236.482 13.3083C234.739 12.5898 232.87 12.2205 230.983 12.2214C229.096 12.221 227.228 12.5906 225.485 13.3093C223.742 14.0279 222.158 15.0814 220.824 16.4096C219.49 17.7378 218.432 19.3147 217.71 21.0501C216.989 22.7855 216.618 24.6454 216.619 26.5236V39.5753ZM262 44.567V82H208.938C214.786 78.7678 219.124 79.089 226.356 79.3111C236.19 79.6322 247.053 75.5357 252.39 70.0998C257.723 64.6604 251.909 68.8185 245.865 70.3526C239.824 71.8901 228.12 72.0507 220.281 70.0007C244.901 70.3218 254.511 62.4191 259.941 55.2851C265.374 48.1818 257.596 54.038 252.551 56.5014C247.506 58.9614 238.699 60.6937 228.992 59.4124C243.648 59.3783 254.803 52.0871 261.966 44.567H262Z" fill="#92AFFA"/>
<path d="M279 39.5753H283.373V26.5236C283.371 23.0401 284.06 19.5905 285.398 16.3719C286.737 13.1533 288.699 10.2288 291.174 7.76558C293.648 5.30236 296.586 3.3487 299.819 2.01625C303.052 0.683789 306.518 -0.00134499 310.017 1.98226e-06C313.516 -0.000896015 316.981 0.684569 320.214 2.01723C323.447 3.34989 326.384 5.30362 328.858 7.76678C331.333 10.2299 333.295 13.1543 334.633 16.3726C335.971 19.591 336.66 23.0404 336.658 26.5236V39.4488C336.596 39.483 336.531 39.5445 336.466 39.5753L336.432 39.6094L336.404 39.6402H336.37L336.336 39.6743L336.305 39.7051H336.209L336.147 39.7666H336.078L336.016 39.8008H335.982L335.951 39.8349L335.92 39.8657H335.886L335.855 39.8964L335.824 39.9306L335.79 39.9613L335.759 39.9921L335.663 40.057L335.598 40.0912L335.502 40.1527L335.44 40.1868L335.371 40.2176L335.278 40.2791L335.213 40.3133L335.179 40.344L335.086 40.4089L335.018 40.4431L334.86 40.5353L334.795 40.5695L334.733 40.6003L334.664 40.6344H334.637L334.441 40.7267H334.376C334.314 40.7608 334.249 40.795 334.153 40.8565H334.118L334.087 40.8907L333.991 40.9522L333.93 40.9863L333.83 41.0478L333.768 41.082H333.734L333.638 41.1435L333.576 41.1777L333.507 41.2084C333.446 41.2426 333.35 41.2733 333.284 41.3041L333.223 41.3383L333.154 41.369L333.027 41.4305L332.9 41.4988L332.739 41.5603L332.577 41.6253L332.512 41.656L332.385 41.7209L332.32 41.7551C327.017 44.28 318.533 46.9348 302.432 48.0862C290.893 48.9198 283.888 53.9731 279.354 60.0513L279 39.5753ZM295.619 39.5753H324.35V26.5236C324.351 24.6451 323.98 22.7849 323.258 21.0493C322.537 19.3137 321.478 17.7367 320.144 16.4084C318.81 15.0802 317.226 14.0267 315.482 13.3083C313.739 12.5898 311.87 12.2205 309.983 12.2214C308.096 12.221 306.228 12.5906 304.485 13.3093C302.742 14.0279 301.158 15.0814 299.824 16.4096C298.49 17.7378 297.432 19.3147 296.71 21.0501C295.989 22.7855 295.618 24.6454 295.619 26.5236V39.5753ZM341 44.567V82H287.938C293.786 78.7678 298.124 79.089 305.356 79.3111C315.19 79.6322 326.053 75.5357 331.39 70.0998C336.723 64.6604 330.909 68.8185 324.865 70.3526C318.824 71.8901 307.12 72.0507 299.281 70.0007C323.901 70.3218 333.511 62.4191 338.941 55.2851C344.374 48.1818 336.596 54.038 331.551 56.5014C326.506 58.9614 317.699 60.6937 307.992 59.4124C322.648 59.3783 333.803 52.0871 340.966 44.567H341Z" fill="#D7E2FF"/>
<path d="M-37 39.5753H-32.6273V26.5236C-32.6287 23.0401 -31.9404 19.5905 -30.6019 16.3719C-29.2634 13.1533 -27.3008 10.2288 -24.8264 7.76558C-22.3519 5.30236 -19.4141 3.3487 -16.1808 2.01625C-12.9476 0.683789 -9.48222 -0.00134499 -5.98284 1.98226e-06C-2.48374 -0.000896015 0.981239 0.684569 4.21411 2.01723C7.44698 3.34989 10.3844 5.30362 12.8585 7.76678C15.3325 10.2299 17.2948 13.1543 18.6331 16.3726C19.9714 19.591 20.6596 23.0404 20.6582 26.5236V39.4488C20.5964 39.483 20.5312 39.5445 20.466 39.5753L20.4317 39.6094L20.4042 39.6402H20.3699L20.3356 39.6743L20.3047 39.7051H20.2086L20.1468 39.7666H20.0782L20.0164 39.8008H19.9821L19.9512 39.8349L19.9203 39.8657H19.886L19.8551 39.8964L19.8242 39.9306L19.7899 39.9613L19.759 39.9921L19.6629 40.057L19.5977 40.0912L19.5015 40.1527L19.4398 40.1868L19.3711 40.2176L19.2785 40.2791L19.2132 40.3133L19.1789 40.344L19.0862 40.4089L19.0176 40.4431L18.8597 40.5353L18.7945 40.5695L18.7327 40.6003L18.6641 40.6344H18.6366L18.441 40.7267H18.3758C18.314 40.7608 18.2488 40.795 18.1527 40.8565H18.1184L18.0875 40.8907L17.9914 40.9522L17.9296 40.9863L17.8301 41.0478L17.7683 41.082H17.7339L17.6378 41.1435L17.5761 41.1777L17.5074 41.2084C17.4456 41.2426 17.3495 41.2733 17.2843 41.3041L17.2225 41.3383L17.1539 41.369L17.0269 41.4305L16.8999 41.4988L16.7386 41.5603L16.5773 41.6253L16.5121 41.656L16.3851 41.7209L16.3199 41.7551C11.0171 44.28 2.53255 46.9348 -13.5681 48.0862C-25.1073 48.9198 -32.1125 53.9731 -36.6465 60.0513L-37 39.5753ZM-20.3811 39.5753H8.3502V26.5236C8.3511 24.6451 7.98009 22.7849 7.25839 21.0493C6.53668 19.3137 5.47842 17.7367 4.14411 16.4084C2.8098 15.0802 1.2256 14.0267 -0.517941 13.3083C-2.26147 12.5898 -4.13016 12.2205 -6.01716 12.2214C-7.90387 12.221 -9.77218 12.5906 -11.5153 13.3093C-13.2585 14.0279 -14.8423 15.0814 -16.1762 16.4096C-17.5102 17.7378 -18.5681 19.3147 -19.2896 21.0501C-20.0111 22.7855 -20.382 24.6454 -20.3811 26.5236V39.5753ZM25 44.567V82H-28.0624C-22.2139 78.7678 -17.8756 79.089 -10.6438 79.3111C-0.810452 79.6322 10.0526 75.5357 15.3897 70.0998C20.7234 64.6604 14.9092 68.8185 8.86503 70.3526C2.82429 71.8901 -8.87965 72.0507 -16.7189 70.0007C7.90057 70.3218 17.5108 62.4191 22.9407 55.2851C28.3739 48.1818 20.5964 54.038 15.551 56.5014C10.5056 58.9614 1.69852 60.6937 -8.00786 59.4124C6.64781 59.3783 17.8026 52.0871 24.9657 44.567H25Z" fill="#D7E2FF"/>
<path d="M42 39.5753H46.3727V26.5236C46.3713 23.0401 47.0596 19.5905 48.3981 16.3719C49.7366 13.1533 51.6992 10.2288 54.1736 7.76558C56.6481 5.30236 59.5859 3.3487 62.8192 2.01625C66.0524 0.683789 69.5178 -0.00134499 73.0172 1.98226e-06C76.5163 -0.000896015 79.9812 0.684569 83.2141 2.01723C86.447 3.34989 89.3844 5.30362 91.8585 7.76678C94.3325 10.2299 96.2948 13.1543 97.6331 16.3726C98.9714 19.591 99.6596 23.0404 99.6582 26.5236V39.4488C99.5964 39.483 99.5312 39.5445 99.466 39.5753L99.4317 39.6094L99.4042 39.6402H99.3699L99.3356 39.6743L99.3047 39.7051H99.2086L99.1468 39.7666H99.0782L99.0164 39.8008H98.9821L98.9512 39.8349L98.9203 39.8657H98.886L98.8551 39.8964L98.8242 39.9306L98.7899 39.9613L98.759 39.9921L98.6629 40.057L98.5977 40.0912L98.5015 40.1527L98.4398 40.1868L98.3711 40.2176L98.2785 40.2791L98.2132 40.3133L98.1789 40.344L98.0862 40.4089L98.0176 40.4431L97.8597 40.5353L97.7945 40.5695L97.7327 40.6003L97.6641 40.6344H97.6366L97.441 40.7267H97.3758C97.314 40.7608 97.2488 40.795 97.1527 40.8565H97.1184L97.0875 40.8907L96.9914 40.9522L96.9296 40.9863L96.8301 41.0478L96.7683 41.082H96.7339L96.6378 41.1435L96.5761 41.1777L96.5074 41.2084C96.4456 41.2426 96.3495 41.2733 96.2843 41.3041L96.2225 41.3383L96.1539 41.369L96.0269 41.4305L95.8999 41.4988L95.7386 41.5603L95.5773 41.6253L95.5121 41.656L95.3851 41.7209L95.3199 41.7551C90.0171 44.28 81.5326 46.9348 65.4319 48.0862C53.8927 48.9198 46.8875 53.9731 42.3535 60.0513L42 39.5753ZM58.6189 39.5753H87.3502V26.5236C87.3511 24.6451 86.9801 22.7849 86.2584 21.0493C85.5367 19.3137 84.4784 17.7367 83.1441 16.4084C81.8098 15.0802 80.2256 14.0267 78.4821 13.3083C76.7385 12.5898 74.8698 12.2205 72.9828 12.2214C71.0961 12.221 69.2278 12.5906 67.4847 13.3093C65.7415 14.0279 64.1577 15.0814 62.8238 16.4096C61.4898 17.7378 60.4319 19.3147 59.7104 21.0501C58.9889 22.7855 58.618 24.6454 58.6189 26.5236V39.5753ZM104 44.567V82H50.9376C56.7861 78.7678 61.1244 79.089 68.3562 79.3111C78.1895 79.6322 89.0526 75.5357 94.3897 70.0998C99.7234 64.6604 93.9092 68.8185 87.865 70.3526C81.8243 71.8901 70.1203 72.0507 62.2811 70.0007C86.9006 70.3218 96.5108 62.4191 101.941 55.2851C107.374 48.1818 99.5964 54.038 94.551 56.5014C89.5056 58.9614 80.6985 60.6937 70.9921 59.4124C85.6478 59.3783 96.8026 52.0871 103.966 44.567H104Z" fill="#92AFFA"/>
</g>
</svg>
