<svg width="61" height="62" viewBox="0 0 61 62" fill="none" xmlns="http://www.w3.org/2000/svg">
<path d="M30.4936 5.62183C34.146 5.62183 37.7626 6.34122 41.137 7.73893C44.5114 9.13664 47.5774 11.1853 50.16 13.7679C52.7427 16.3506 54.7913 19.4166 56.189 22.791C57.5867 26.1653 58.3061 29.7819 58.3061 33.4343C58.3061 37.0867 57.5867 40.7033 56.189 44.0777C54.7913 47.4521 52.7427 50.5181 50.16 53.1007C47.5774 55.6834 44.5114 57.732 41.137 59.1297C37.7626 60.5274 34.146 61.2468 30.4936 61.2468C23.1173 61.2468 16.0431 58.3166 10.8272 53.1007C5.61136 47.8849 2.68113 40.8107 2.68113 33.4343C2.68113 26.058 5.61136 18.9838 10.8272 13.7679C16.0431 8.55207 23.1173 5.62183 30.4936 5.62183ZM30.4936 9.33017C24.1008 9.33017 17.9698 11.8697 13.4494 16.3901C8.929 20.9105 6.38946 27.0415 6.38946 33.4343C6.38946 39.8272 8.929 45.9581 13.4494 50.4785C17.9698 54.999 24.1008 57.5385 30.4936 57.5385C36.8864 57.5385 43.0174 54.999 47.5378 50.4785C52.0583 45.9581 54.5978 39.8272 54.5978 33.4343C54.5978 27.0415 52.0583 20.9105 47.5378 16.3901C43.0174 11.8697 36.8864 9.33017 30.4936 9.33017ZM28.6395 16.7468H32.3478V32.9263L43.6508 38.1958L42.0822 41.5556L28.6395 35.2885V16.7468ZM44.3999 2.84058L46.7843 0L60.9873 11.9186L58.6028 14.7592L44.3999 2.84058ZM16.5874 2.84058L2.38446 14.7592L0 11.9186L14.2029 0L16.5874 2.84058Z" fill="#005DD2"/>
</svg>
