<svg width="164" height="30" viewBox="0 0 164 30" fill="none" xmlns="http://www.w3.org/2000/svg">
<path d="M53.0667 4.90115C51.3702 4.29324 49.5769 3.98818 47.7713 4.00035C41.9322 4.00035 37.8083 6.89296 37.7791 11.0453C37.7426 14.0958 40.7096 15.8148 42.9541 16.8341C45.2569 17.882 46.0269 18.5424 46.0196 19.4791C46.005 20.9038 44.1803 21.5498 42.4833 21.5498C40.1513 21.5498 38.8776 21.2304 36.9179 20.4301L36.1916 20.0963L35.3632 24.8767C36.7828 25.4581 39.3411 25.9569 41.9833 26C48.191 26 52.2492 23.1253 52.2966 18.7075C52.3477 16.2706 50.742 14.4295 47.3626 12.9079C45.3079 11.9209 44.0343 11.2606 44.0343 10.2593C44.0343 9.37286 45.1255 8.4254 47.4064 8.4254C48.9244 8.38928 50.433 8.66936 51.8332 9.24725L52.3806 9.4877L53.209 4.86885L53.0667 4.90115ZM68.2192 4.38795H63.6574C62.2378 4.38795 61.1685 4.77195 60.5481 6.15725L51.7748 25.7021H57.9825L59.2233 22.4973L66.7996 22.5045C66.9784 23.2545 67.5258 25.7021 67.5258 25.7021H73L68.2192 4.38795ZM29.3817 4.2085H35.2975L31.597 25.5335H25.6885L29.3817 4.20132V4.2085ZM14.3642 15.962L14.9774 18.9228L20.7581 4.38795H27.0242L17.7144 25.6734H11.4629L6.3537 7.65021C6.27095 7.35302 6.07661 7.09779 5.80993 6.93603C3.96842 6.00055 2.01722 5.29064 0 4.82219L0.0802878 4.37359H9.60171C10.8936 4.42383 11.9337 4.82219 12.2804 6.17878L14.3606 15.9728V15.962H14.3642ZM60.9203 18.1368L63.2779 12.1722C63.2487 12.2368 63.7632 10.9412 64.0625 10.1409L64.4676 11.982L65.8361 18.1332H60.9167V18.1368H60.9203Z" fill="#BCBCBC"/>
<path d="M138.601 27.2002C138.716 27.2998 138.84 27.3994 138.962 27.4966C136.537 29.1311 133.689 30.0016 130.778 29.9988C128.837 30.0004 126.915 29.6136 125.122 28.8606C123.329 28.1076 121.699 27.0031 120.327 25.6103C118.954 24.2175 117.865 22.5638 117.123 20.7436C116.381 18.9234 115.999 16.9725 116 15.0025C116 12.2893 116.724 9.62672 118.097 7.29845C119.469 4.97018 121.438 3.06336 123.794 1.78105C126.149 0.498736 128.803 -0.111052 131.473 0.0166197C134.143 0.144292 136.729 1.00464 138.955 2.50606C138.836 2.61052 138.716 2.70526 138.625 2.81215C136.9 4.3242 135.516 6.19561 134.567 8.29913C133.618 10.4026 133.126 12.6889 133.126 15.0025C133.126 19.679 135.119 24.1247 138.601 27.2002ZM149.038 0.00384954C146.129 -0.00189315 143.284 0.86895 140.863 2.50606C140.98 2.61052 141.1 2.70526 141.191 2.81215C144.689 5.88039 146.692 10.3285 146.692 15.0025C146.692 19.6765 144.694 24.1198 141.217 27.2002C141.1 27.2998 140.975 27.3994 140.855 27.4966C143.279 29.1317 146.125 30.0023 149.035 29.9988C150.991 30.0242 152.933 29.6551 154.747 28.9129C156.562 28.1707 158.213 27.0702 159.605 25.6751C160.997 24.2801 162.102 22.6183 162.857 20.7862C163.611 18.9542 164 16.9883 164 15.0025C164 13.0168 163.612 11.0508 162.858 9.21864C162.103 7.38645 160.998 5.72451 159.607 4.32924C158.215 2.93398 156.564 1.83316 154.749 1.09066C152.935 0.348152 150.994 -0.0212603 149.038 0.00384954ZM139.908 3.22028C138.148 4.62069 136.726 6.40949 135.749 8.45095C134.772 10.4924 134.266 12.7329 134.269 15.0025C134.265 17.2734 134.77 19.5155 135.747 21.5583C136.724 23.6012 138.147 25.3911 139.908 26.7921C141.668 25.3905 143.091 23.6005 144.068 21.5578C145.045 19.5152 145.552 17.2734 145.548 15.0025C145.552 12.7327 145.045 10.4919 144.068 8.45037C143.091 6.40884 141.668 4.6202 139.908 3.22028Z" fill="#BCBCBC"/>
</svg>
