<svg width="29" height="20" viewBox="0 0 29 20" fill="none" xmlns="http://www.w3.org/2000/svg">
<path d="M28.424 3.11639C28.2628 2.51858 27.9479 1.97339 27.5105 1.5351C27.0732 1.0968 26.5286 0.780676 25.9311 0.618194C23.7155 0.0099127 14.8516 1.07461e-05 14.8516 1.07461e-05C14.8516 1.07461e-05 5.98917 -0.00989179 3.77215 0.571512C3.17499 0.741472 2.63155 1.06207 2.19401 1.50251C1.75647 1.94296 1.43951 2.48848 1.27358 3.08668C0.689255 5.30196 0.683596 9.8966 0.683596 9.8966C0.683596 9.8966 0.677937 14.5139 1.25801 16.7065C1.58342 17.9188 2.53843 18.8765 3.75234 19.2033C5.99059 19.8116 14.8304 19.8215 14.8304 19.8215C14.8304 19.8215 23.6942 19.8314 25.9098 19.2514C26.5076 19.0892 27.0527 18.7738 27.4911 18.3364C27.9296 17.899 28.2463 17.3547 28.4098 16.7574C28.9956 14.5436 28.9998 9.95036 28.9998 9.95036C28.9998 9.95036 29.0281 5.33167 28.424 3.11639ZM12.0163 14.1532L12.0234 5.66551L19.3904 9.91641L12.0163 14.1532Z" fill="#C4C4C4"/>
</svg>
