<svg width="26" height="18" viewBox="0 0 26 18" fill="none" xmlns="http://www.w3.org/2000/svg">
<path d="M25.22 2.78509C25.076 2.25083 24.7946 1.7636 24.4037 1.3719C24.0128 0.980199 23.5261 0.697683 22.9921 0.552474C21.0121 0.00885889 13.0905 9.60367e-06 13.0905 9.60367e-06C13.0905 9.60367e-06 5.17026 -0.0088402 3.18892 0.510755C2.65525 0.662646 2.16958 0.949158 1.77856 1.34278C1.38753 1.73641 1.10427 2.22393 0.955973 2.75854C0.433771 4.73831 0.428713 8.8445 0.428713 8.8445C0.428713 8.8445 0.423655 12.9709 0.942064 14.9305C1.23288 16.0139 2.08636 16.8698 3.17122 17.1618C5.17152 17.7054 13.0716 17.7143 13.0716 17.7143C13.0716 17.7143 20.9931 17.7231 22.9732 17.2048C23.5074 17.0598 23.9945 16.778 24.3863 16.3871C24.7782 15.9962 25.0612 15.5098 25.2074 14.976C25.7309 12.9975 25.7346 8.89254 25.7346 8.89254C25.7346 8.89254 25.7599 4.76486 25.22 2.78509ZM10.5567 12.6485L10.563 5.06322L17.1468 8.8622L10.5567 12.6485Z" fill="white"/>
</svg>
